<svg width="350" height="350" viewBox="0 0 350 350" fill="none" xmlns="http://www.w3.org/2000/svg">
    <g clip-path="url(#clip0_1_2)">
        <rect width="350" height="350" rx="33" fill="#2C2C2C" />
        <path
            d="M12 209.053V139.947H54.6283V152.253H25.9252V167.779H51.3127V179.517H25.9252V196.747H54.6283V209.053H12Z"
            fill="white" />
        <path
            d="M67.3797 209.053V139.947H89.6412C94.5671 139.947 98.8299 140.799 102.43 142.503C106.029 144.207 108.808 146.636 110.766 149.792C112.787 152.948 113.797 156.671 113.797 160.963C113.797 165.444 112.692 169.451 110.482 172.985C108.334 176.52 105.398 179.076 101.672 180.653L114.744 209.053H99.3036L88.1255 182.925H81.4944V209.053H67.3797ZM81.4944 170.619H89.6412C92.7988 170.619 95.2302 169.83 96.9354 168.252C98.7036 166.674 99.5878 164.465 99.5878 161.625C99.5878 158.659 98.7036 156.356 96.9354 154.715C95.2302 153.074 92.7988 152.253 89.6412 152.253H81.4944V170.619Z"
            fill="white" />
        <path
            d="M125.601 209.053V196.273H139.337V152.727H125.601V139.947H167.282V152.727H153.547V196.273H167.282V209.053H125.601Z"
            fill="white" />
        <path
            d="M180.981 209.053V139.947H195.191V167.116H201.822L213.379 139.947H228.725L214.326 172.701L229.293 209.053H213.758L201.916 179.423H195.191V209.053H180.981Z"
            fill="white" />
        <path
            d="M260.043 210C255.433 210 251.423 209.148 248.013 207.444C244.602 205.677 241.95 203.247 240.055 200.155C238.224 196.999 237.308 193.339 237.308 189.173V159.827C237.308 155.661 238.224 152.032 240.055 148.94C241.95 145.784 244.602 143.355 248.013 141.651C251.423 139.884 255.433 139 260.043 139C264.717 139 268.727 139.884 272.074 141.651C275.484 143.355 278.105 145.784 279.936 148.94C281.831 152.032 282.778 155.661 282.778 159.827V189.173C282.778 193.339 281.831 196.999 279.936 200.155C278.105 203.247 275.484 205.677 272.074 207.444C268.727 209.148 264.717 210 260.043 210ZM260.043 197.693C263.011 197.693 265.317 196.936 266.959 195.421C268.664 193.907 269.516 191.824 269.516 189.173V159.827C269.516 157.176 268.664 155.093 266.959 153.579C265.317 152.064 263.011 151.307 260.043 151.307C257.075 151.307 254.738 152.064 253.033 153.579C251.391 155.093 250.57 157.176 250.57 159.827V189.173C250.57 191.824 251.423 193.907 253.128 195.421C254.833 196.936 257.138 197.693 260.043 197.693ZM260.043 181.032C258.086 181.032 256.475 180.401 255.212 179.139C254.012 177.876 253.412 176.236 253.412 174.216C253.412 172.196 254.012 170.587 255.212 169.388C256.475 168.189 258.086 167.589 260.043 167.589C262.064 167.589 263.675 168.189 264.874 169.388C266.074 170.587 266.674 172.196 266.674 174.216C266.674 176.236 266.074 177.876 264.874 179.139C263.675 180.401 262.064 181.032 260.043 181.032Z"
            fill="white" />
        <path
            d="M316.844 210C312.044 210 307.813 209.022 304.15 207.065C300.55 205.046 297.74 202.237 295.719 198.64C293.698 195.043 292.688 190.877 292.688 186.144C292.688 180.464 294.93 173.711 299.414 165.885L314.381 139.947H329.822L310.497 172.891L311.16 173.269C312.55 171.25 314.16 169.672 315.991 168.536C317.886 167.4 320.191 166.832 322.907 166.832C326.506 166.832 329.664 167.716 332.38 169.483C335.095 171.187 337.211 173.616 338.726 176.772C340.242 179.864 341 183.493 341 187.659C341 192.076 339.99 195.989 337.969 199.397C335.948 202.742 333.137 205.361 329.538 207.255C325.938 209.085 321.707 210 316.844 210ZM316.844 198.167C319.938 198.167 322.433 197.22 324.328 195.327C326.222 193.37 327.169 190.877 327.169 187.848C327.169 184.756 326.222 182.231 324.328 180.275C322.433 178.318 319.938 177.34 316.844 177.34C313.749 177.34 311.255 178.318 309.36 180.275C307.466 182.231 306.518 184.756 306.518 187.848C306.518 190.877 307.466 193.37 309.36 195.327C311.255 197.22 313.749 198.167 316.844 198.167Z"
            fill="white" />
    </g>
    <defs>
        <clipPath id="clip0_1_2">
            <rect width="350" height="350" fill="white" />
        </clipPath>
    </defs>
</svg>