<svg width="350" height="350" viewBox="0 0 350 350" fill="none" xmlns="http://www.w3.org/2000/svg">
<g clip-path="url(#clip0_1_2)">
<rect width="350" height="350" rx="33" fill="#2C2C2C"/>
<path d="M63 172.423V37.84H159.362V67.28H99.2989V90.4114H154.4V119.851H99.2989V142.983H159.101V172.423H63Z" fill="white"/>
<path d="M249.44 79.8971C249.092 75.5162 247.46 72.099 244.544 69.6457C241.671 67.1924 237.297 65.9657 231.421 65.9657C227.678 65.9657 224.61 66.4257 222.216 67.3457C219.865 68.2219 218.125 69.4267 216.993 70.96C215.861 72.4933 215.274 74.2457 215.23 76.2171C215.143 77.8381 215.426 79.3057 216.079 80.62C216.775 81.8905 217.863 83.0514 219.343 84.1029C220.823 85.1105 222.716 86.0305 225.023 86.8629C227.33 87.6952 230.072 88.44 233.249 89.0971L244.217 91.4629C251.616 93.04 257.949 95.121 263.215 97.7057C268.482 100.29 272.791 103.335 276.142 106.84C279.493 110.301 281.952 114.2 283.519 118.537C285.13 122.874 285.956 127.606 286 132.731C285.956 141.581 283.759 149.072 279.406 155.206C275.054 161.339 268.83 166.005 260.734 169.203C252.682 172.401 242.998 174 231.682 174C220.061 174 209.92 172.27 201.259 168.809C192.641 165.348 185.939 160.025 181.151 152.84C176.407 145.611 174.013 136.368 173.97 125.109H208.44C208.658 129.227 209.681 132.688 211.509 135.491C213.337 138.295 215.905 140.42 219.213 141.866C222.564 143.311 226.546 144.034 231.16 144.034C235.034 144.034 238.276 143.552 240.888 142.589C243.499 141.625 245.479 140.289 246.829 138.58C248.178 136.871 248.874 134.922 248.918 132.731C248.874 130.672 248.2 128.876 246.894 127.343C245.632 125.766 243.542 124.364 240.626 123.137C237.71 121.867 233.771 120.684 228.81 119.589L215.491 116.697C203.653 114.112 194.317 109.797 187.484 103.751C180.694 97.6619 177.321 89.36 177.364 78.8457C177.321 70.3029 179.584 62.8333 184.154 56.4371C188.768 49.9971 195.144 44.981 203.283 41.3886C211.465 37.7962 220.845 36 231.421 36C242.215 36 251.551 37.8181 259.429 41.4543C267.307 45.0905 273.378 50.2162 277.643 56.8314C281.952 63.4029 284.128 71.0914 284.172 79.8971H249.44Z" fill="white"/>
<path d="M111.899 324C99.7806 323.957 89.3126 321.153 80.4952 315.59C71.6778 310.026 64.8802 302.007 60.1023 291.532C55.3244 281.057 52.9572 268.496 53.0006 253.848C53.044 239.157 55.433 226.683 60.1674 216.425C64.9453 206.167 71.7213 198.365 80.4952 193.019C89.3126 187.673 99.7806 185 111.899 185C124.018 185 134.485 187.695 143.303 193.084C152.12 198.431 158.918 206.232 163.696 216.49C168.474 226.748 170.841 239.2 170.798 253.848C170.798 268.583 168.409 281.187 163.631 291.662C158.853 302.137 152.055 310.157 143.238 315.72C134.464 321.24 124.018 324 111.899 324ZM111.899 294.531C118.154 294.531 123.279 291.271 127.275 284.751C131.315 278.188 133.313 267.887 133.269 253.848C133.269 244.677 132.357 237.179 130.533 231.355C128.709 225.531 126.189 221.228 122.975 218.446C119.761 215.621 116.069 214.208 111.899 214.208C105.644 214.208 100.541 217.381 96.5881 223.727C92.6354 230.073 90.6157 240.113 90.5288 253.848C90.4854 263.193 91.3758 270.886 93.2001 276.928C95.0244 282.926 97.5436 287.359 100.758 290.228C104.016 293.097 107.729 294.531 111.899 294.531Z" fill="white"/>
<path d="M243.574 322.174C235.799 322.174 228.415 320.957 221.422 318.523C214.472 316.046 208.304 312.156 202.918 306.853C197.532 301.55 193.297 294.64 190.213 286.121C187.173 277.601 185.674 267.279 185.718 255.152C185.761 244.329 187.151 234.593 189.887 225.944C192.667 217.294 196.598 209.927 201.68 203.842C206.805 197.757 212.93 193.106 220.053 189.89C227.177 186.63 235.104 185 243.834 185C253.651 185 262.294 186.891 269.765 190.672C277.236 194.454 283.187 199.517 287.617 205.863C292.091 212.165 294.697 219.12 295.436 226.726H259.732C258.906 222.945 256.995 220.185 253.998 218.446C251.044 216.664 247.657 215.773 243.834 215.773C236.233 215.773 230.652 219.076 227.09 225.683C223.572 232.29 221.769 240.982 221.682 251.762H222.464C224.158 247.676 226.721 244.177 230.152 241.265C233.583 238.353 237.579 236.114 242.14 234.55C246.701 232.985 251.522 232.203 256.604 232.203C264.683 232.203 271.741 234.028 277.779 237.679C283.86 241.33 288.594 246.329 291.982 252.674C295.37 259.02 297.043 266.279 296.999 274.45C297.043 284.013 294.784 292.379 290.223 299.551C285.706 306.723 279.43 312.286 271.394 316.242C263.358 320.197 254.085 322.174 243.574 322.174ZM243.313 294.792C246.918 294.792 250.111 293.966 252.89 292.314C255.714 290.663 257.907 288.402 259.471 285.534C261.078 282.665 261.86 279.405 261.816 275.754C261.86 272.06 261.078 268.8 259.471 265.975C257.907 263.106 255.714 260.846 252.89 259.194C250.111 257.543 246.918 256.717 243.313 256.717C240.663 256.717 238.209 257.195 235.951 258.151C233.735 259.064 231.803 260.389 230.152 262.128C228.501 263.823 227.198 265.844 226.243 268.191C225.331 270.495 224.853 273.016 224.809 275.754C224.853 279.405 225.678 282.665 227.285 285.534C228.892 288.402 231.086 290.663 233.866 292.314C236.646 293.966 239.795 294.792 243.313 294.792Z" fill="white"/>
</g>
<defs>
<clipPath id="clip0_1_2">
<rect width="350" height="350" fill="white"/>
</clipPath>
</defs>
</svg>
